# xmcd CD database file
#
# Track frame offsets:
#	150
#	17916
#	31953
#	43526
#	68613
#	81994
#	96847
#	113083
#	133606
#	149403
#
# Disc length: 2208 seconds
#
# Revision: 5
# Processed by: cddbd v1.5.2PL0 Copyright (c) Steve Scherf et al.
# Submitted via: CDex 1.70beta3
#
DISCID=83089e0a
DTITLE=Little Feat - Dixie Chicken
DYEAR=1973
DGENRE=Rock
TTITLE0=Dixie Chicken
TTITLE1=Two Trains
TTITLE2=Roll Um Easy
TTITLE3=On Your Way Down
TTITLE4=Kiss It Off
TTITLE5=Fool Yourself
TTITLE6=Walkin All Night
TTITLE7=Fat Man In The Bathtub
TTITLE8=Juliette
TTITLE9=Lafayette Railroad
EXTD=YEAR: 1973
EXTT0=
EXTT1=
EXTT2=
EXTT3=
EXTT4=
EXTT5=
EXTT6=
EXTT7=
EXTT8=
EXTT9=
PLAYORDER=
